<?xml version="1.0" encoding="UTF-8"?>
<svg version="1.1" xmlns="http://www.w3.org/2000/svg" width="1200" height="1200">
<path d="M0 0 C6.89972379 7.66423612 7.33014624 15.76078611 7.43000793 25.68341064 C7.4537298 27.42502322 7.4537298 27.42502322 7.4779309 29.2018199 C7.51845734 33.05819668 7.5348918 36.9139282 7.54223633 40.77050781 C7.54473081 41.77388297 7.54473081 41.77388297 7.54727568 42.79752833 C7.6036433 73.80227493 4.68927405 104.26382625 1.09544326 135.02854882 C0.21153432 142.60548879 -0.63352061 150.18665034 -1.47806706 157.76806095 C-2.98493467 171.28487431 -4.52251118 184.79799624 -6.07983398 198.30908203 C-7.58412493 211.36045366 -9.06797009 224.41393389 -10.52905273 237.47021484 C-10.61995339 238.28247185 -10.71085404 239.09472885 -10.80450926 239.93159971 C-10.98767724 241.56847475 -11.17084106 243.20535025 -11.3540007 244.84222622 C-11.44439129 245.65002838 -11.53478187 246.45783053 -11.62791157 247.29011154 C-11.71809589 248.09615748 -11.80828021 248.90220342 -11.90119739 249.732675 C-13.30832064 262.30342356 -14.73086692 274.87243282 -16.1561057 287.44113873 C-16.58379619 291.21332873 -17.01075226 294.98559894 -17.43601632 298.75806332 C-18.32496034 306.64318225 -19.2190728 314.52763839 -20.1307594 322.41016439 C-20.50652034 325.65971757 -20.87832098 328.90962999 -21.2437458 332.16036415 C-21.64082184 335.68678771 -22.05000296 339.21160201 -22.46235657 342.73626709 C-22.57423744 343.75401679 -22.68611831 344.77176649 -22.80138952 345.82035708 C-24.00375283 355.86658447 -26.20168653 365.37815593 -34.42578125 371.93359375 C-39.15137582 374.96708559 -44.59157161 376.46414679 -49.875 378.25 C-70.52848866 385.48192231 -89.52334481 395.42168913 -106 410 C-106.98613281 410.86496094 -107.97226562 411.72992187 -108.98828125 412.62109375 C-124.67019891 426.56334937 -137.60703534 442.80046911 -147.49023438 461.34228516 C-151.075522 467.84021954 -156.26300606 473.24093013 -163.51829243 475.47805786 C-175.04588717 477.90249236 -188.04868273 475.32566901 -199.61645508 474.015625 C-201.55909121 473.80135143 -203.50180192 473.58775314 -205.44458008 473.37477112 C-210.70338846 472.7963485 -215.9611117 472.20855792 -221.21869111 471.6190834 C-226.80929486 470.99397011 -232.40087758 470.37773539 -237.99235535 469.76049805 C-248.65080934 468.58259656 -259.30839206 467.39699684 -269.96567315 466.20853519 C-284.13039872 464.62931454 -298.29634123 463.06109742 -312.46227813 461.49278641 C-325.07151894 460.09673815 -337.68044077 458.69797204 -350.2883606 457.29003906 C-369.86576259 455.10534503 -389.44352588 452.93384586 -409.03591263 450.88724327 C-411.68353937 450.61012516 -414.3309558 450.33108937 -416.97829342 450.05122375 C-417.82325141 449.96190551 -418.66820939 449.87258726 -419.53877217 449.7805624 C-421.20151913 449.6047237 -422.86425601 449.42878974 -424.52698225 449.25275517 C-429.20520064 448.75872058 -433.88452332 448.27793624 -438.56521559 447.80795002 C-440.70562103 447.59076866 -442.84519027 447.36684347 -444.98457527 447.1398468 C-447.52573779 446.87039024 -450.06807047 446.61161984 -452.61170769 446.36662292 C-462.46205257 445.29319022 -471.26988304 442.68111175 -478 435 C-481.29663751 429.52176413 -482.09739803 423.57491495 -482.25634766 417.29296875 C-482.2998082 415.60204102 -482.2998082 415.60204102 -482.34414673 413.87695312 C-482.43033673 409.32870913 -482.50188453 404.78047374 -482.54844093 400.23165894 C-482.58363708 396.81158961 -482.63549254 393.39398263 -482.73388672 389.97509766 C-483.29035097 369.03716866 -480.25355125 352.66169915 -473 333 C-471.99068661 330.10820538 -470.99496745 327.21203918 -470.00109863 324.31491089 C-453.59412321 277.4514729 -429.1479824 233.39366692 -399 194 C-398.55350098 193.41605469 -398.10700195 192.83210937 -397.64697266 192.23046875 C-388.48432266 180.30375808 -378.83270284 168.85019964 -368.60546875 157.82421875 C-366.26425291 155.28643906 -363.97207009 152.71361639 -361.6875 150.125 C-357.76263569 145.75769644 -353.69025328 141.54948652 -349.5625 137.375 C-348.94656982 136.74609863 -348.33063965 136.11719727 -347.69604492 135.46923828 C-347.11701416 134.88899902 -346.5379834 134.30875977 -345.94140625 133.7109375 C-345.42263916 133.18806152 -344.90387207 132.66518555 -344.36938477 132.12646484 C-343 131 -343 131 -341 131 C-341 130.34 -341 129.68 -341 129 C-339.7421875 127.6953125 -339.7421875 127.6953125 -337.875 126.125 C-337.14023437 125.50109375 -336.40546875 124.8771875 -335.6484375 124.234375 C-334.77445313 123.49703125 -333.90046875 122.7596875 -333 122 C-331.97016519 121.11075009 -330.94159172 120.22003802 -329.9140625 119.328125 C-295.57870026 89.57449116 -258.07733554 63.91633644 -217.15185547 44.04931641 C-214.86683424 42.93506394 -212.5919918 41.80135417 -210.31640625 40.66796875 C-174.59778329 23.06444101 -34.2223232 -27.37785856 0 0 Z M-71.875 50.4375 C-72.58608917 50.56804779 -73.29717834 50.69859558 -74.02981567 50.83309937 C-152.23452636 65.31304559 -225.14680178 99.81426022 -286 151 C-286.56348145 151.47324707 -287.12696289 151.94649414 -287.70751953 152.43408203 C-296.85527513 160.12975543 -296.85527513 160.12975543 -305.44140625 168.4375 C-307.15932171 170.15972101 -308.96415643 171.73134273 -310.8125 173.3125 C-317.79702089 179.34950837 -324.24271341 185.94514484 -330.23828125 192.9609375 C-332.19605739 195.2269223 -334.22228948 197.42143494 -336.25 199.625 C-341.28320365 205.20990389 -345.87667279 211.08866119 -350.46826172 217.03564453 C-352.05449992 219.06989262 -353.66685422 221.08103121 -355.28515625 223.08984375 C-377.91136155 251.35649402 -422 309.07557187 -422 347 C-396.69877858 349.87404247 -371.39352701 352.71196563 -346.08742523 355.5426712 C-342.48135051 355.94609365 -338.87531084 356.34982877 -335.2692771 356.75361735 C-315.55910193 358.96061274 -295.84825273 361.16144034 -276.13616943 363.35133266 C-267.25513137 364.33808001 -258.37435868 365.32709888 -249.49420166 366.32174683 C-241.80033618 367.18349612 -234.10597789 368.04067103 -226.41096085 368.89207858 C-222.40708618 369.33522696 -218.40348878 369.78059745 -214.40048409 370.23154259 C-210.68879727 370.6496007 -206.97648677 371.06156892 -203.26358676 371.4687072 C-201.26095386 371.6899252 -199.25904609 371.91767693 -197.25716591 372.14560604 C-196.07302794 372.27424825 -194.88888996 372.40289045 -193.66886902 372.53543091 C-192.63989093 372.65002718 -191.61091284 372.76462345 -190.55075359 372.88269234 C-187.87724603 373.15879157 -187.87724603 373.15879157 -185 372 C-183.20770243 369.66318608 -183.20770243 369.66318608 -181.4375 366.75 C-173.69115303 354.82711623 -164.84492028 344.23226141 -155 334 C-154.52916992 333.50725586 -154.05833984 333.01451172 -153.57324219 332.50683594 C-136.99203631 315.22845252 -117.26565866 301.57951446 -95.9375 290.8125 C-95.27878906 290.47669922 -94.62007813 290.14089844 -93.94140625 289.79492188 C-90.08989147 287.88053707 -86.30090038 286.34011789 -82.16674805 285.14477539 C-79.16860641 284.01442258 -76.67741689 282.78380149 -74 281 C-72.90703216 278.3160468 -72.90703216 278.3160468 -72.76907349 275.12467957 C-72.64054111 273.86636511 -72.51200874 272.60805065 -72.37958145 271.31160545 C-72.32013682 270.61890486 -72.26069219 269.92620426 -72.1994462 269.21251273 C-71.91472184 266.05398542 -71.5307369 262.90904048 -71.15695739 259.76000941 C-70.60327356 255.05282297 -70.09058288 250.3410482 -69.56982422 245.63012695 C-69.33326206 243.50485734 -69.09651161 241.37960869 -68.85958862 239.25437927 C-68.22133899 233.52400839 -67.58582351 227.7933374 -66.95091391 222.06259561 C-66.28499624 216.05542636 -65.61683561 210.04850652 -64.94900513 204.04154968 C-63.82953706 193.96903218 -62.71183747 183.89631964 -61.59521484 173.82348633 C-60.30350535 162.17141557 -59.00904763 150.5196526 -57.7131232 138.86804992 C-56.46538151 127.64913837 -55.21949703 116.43002135 -53.97449112 105.21080589 C-53.44478304 100.43766917 -52.91443252 95.66460448 -52.38357162 90.89159584 C-51.75988845 85.28320629 -51.1378306 79.67463882 -50.51704788 74.06592751 C-50.28863715 72.00465127 -50.05966259 69.94343742 -49.83009338 67.88228989 C-49.51776699 65.07727619 -49.20745503 62.27204693 -48.89767456 59.4667511 C-48.80565604 58.64459447 -48.71363752 57.82243784 -48.61883056 56.97536737 C-48.28826261 53.96638378 -48 51.02974911 -48 48 C-56.16928524 47.65142 -63.86201312 48.94927212 -71.875 50.4375 Z " fill="#67D35E" transform="translate(597,106)"/>
<path d="M0 0 C2.67214774 0.29296036 5.34435492 0.58532118 8.01664734 0.87695312 C14.49386785 1.58521601 20.97017477 2.30151558 27.44620015 3.02061521 C35.00124933 3.85921734 42.55718357 4.68970949 50.11316018 5.51990654 C63.60135777 7.0021697 77.08874425 8.4916869 90.57568359 9.98535156 C103.63858097 11.43204722 116.70202585 12.87366021 129.76611328 14.30957031 C130.57110011 14.39804937 131.37608693 14.48652843 132.2054673 14.57768868 C133.00911517 14.6660198 133.81276304 14.75435091 134.64076388 14.84535873 C149.55108265 16.48421938 164.46091081 18.12750406 179.37049348 19.77304729 C184.62728952 20.35314234 189.88422087 20.93200099 195.14119339 21.51049423 C201.5531216 22.21618356 207.96475633 22.92447835 214.37604858 23.63592301 C217.64218406 23.99831444 220.90845991 24.35933644 224.1749897 24.71815872 C227.72619457 25.10846075 231.2769147 25.50291828 234.82754517 25.89840698 C235.84527028 26.00930975 236.86299539 26.12021251 237.91156065 26.23447597 C263.43670079 29.10033654 263.43670079 29.10033654 271.21630859 38.10595703 C275.88075271 45.75619577 276.06001978 53.02521864 276.14990234 61.78564453 C276.17555267 63.75946609 276.17555267 63.75946609 276.20172119 65.77316284 C276.23314699 68.56544391 276.25072766 71.35746974 276.26123047 74.14990234 C276.27419684 76.94703732 276.31510589 79.74129621 276.38427734 82.53759766 C276.89929197 103.80378713 273.78114588 121.21831181 266.54052734 141.27783203 C265.95541608 142.97160556 265.37215336 144.66601985 264.79150391 146.36132812 C263.3796296 150.41146717 261.85915334 154.41118673 260.29052734 158.40283203 C260.02217072 159.09543121 259.75381409 159.7880304 259.47732544 160.50161743 C238.3786705 214.88194416 208.01919342 266.72154725 168.64599609 309.95751953 C166.81135049 311.97937387 165.01283948 314.02461726 163.22802734 316.09033203 C153.35084759 327.40793383 143.14637212 338.61869059 131.71240234 348.38330078 C129.57049946 350.25168729 127.49376021 352.18050254 125.41967773 354.12353516 C119.636887 359.52243344 113.62348538 364.49138456 107.3527832 369.31152344 C104.91363221 371.19719396 102.50253347 373.10987977 100.11767578 375.0637207 C91.27554869 382.29957 82.13995345 388.8678515 72.60302734 395.15283203 C71.89152527 395.62450806 71.18002319 396.09618408 70.44696045 396.58215332 C57.75766589 404.98651679 44.86320337 412.90864072 31.54052734 420.27783203 C30.75210449 420.71949707 29.96368164 421.16116211 29.15136719 421.61621094 C-29.62438941 454.38655057 -96.78491667 473.13165503 -163.58447266 479.15283203 C-164.60312912 479.2453273 -164.60312912 479.2453273 -165.6423645 479.33969116 C-190.36442305 481.53274958 -190.36442305 481.53274958 -202.27197266 474.65283203 C-210.28598323 465.95190627 -210.61116078 455.65919544 -210.79058838 444.4669342 C-210.80772054 443.39954714 -210.82485271 442.33216008 -210.84250402 441.23242795 C-211.26416564 408.71814693 -208.72987628 377.16923887 -204.58667664 344.91722595 C-203.70459404 338.03959812 -202.86332905 331.15711118 -202.02291623 324.27428878 C-200.51989369 311.97320251 -198.98734242 299.67600188 -197.43457031 287.38110352 C-195.94185016 275.56117129 -194.46413578 263.7395164 -193.00585938 251.9152832 C-192.91552412 251.18285235 -192.82518887 250.4504215 -192.73211619 249.69579577 C-192.27816207 246.01448017 -191.82447516 242.33313169 -191.37089109 238.65177047 C-188.2347902 213.20273403 -185.09282265 187.75417628 -181.85891342 162.31735897 C-181.57282906 160.06581874 -181.28680769 157.81427051 -181.00085449 155.56271362 C-180.86491796 154.49276604 -180.72898142 153.42281846 -180.5889256 152.32044822 C-179.88287998 146.73315161 -179.20233433 141.14423234 -178.56744933 135.54839581 C-178.23540143 132.62341132 -177.89147445 129.69988529 -177.54649591 126.77640164 C-177.33585529 124.94224692 -177.1450602 123.10584463 -176.9554863 121.26939297 C-175.92715617 112.6132024 -173.70315329 104.66376097 -166.79931641 98.89501953 C-162.2006654 95.82781724 -157.24406601 94.11612328 -152.02197266 92.40283203 C-131.34341489 85.21224322 -114.09439023 75.58225391 -97.45947266 61.27783203 C-96.36699219 60.36904297 -96.36699219 60.36904297 -95.25244141 59.44189453 C-90.49414326 55.42054122 -86.40258005 51.09545038 -82.45947266 46.27783203 C-82.05325684 45.78395996 -81.64704102 45.29008789 -81.22851562 44.78125 C-73.44871076 35.27196749 -66.52296246 25.37774717 -60.40478516 14.71923828 C-46.45452106 -9.19162294 -23.91395111 -2.67222925 0 0 Z M-20.45947266 50.27783203 C-20.77109344 50.73437164 -21.08271423 51.19091125 -21.40377808 51.6612854 C-22.83482466 53.75590676 -24.26822351 55.84890815 -25.70166016 57.94189453 C-26.43678833 59.0190271 -26.43678833 59.0190271 -27.18676758 60.11791992 C-32.98660387 68.57823158 -39.38529175 76.32947741 -46.30322266 83.89892578 C-48.25562702 86.05293712 -50.14224625 88.24810929 -52.02197266 90.46533203 C-55.52593077 94.47328412 -59.38260094 97.86642906 -63.45947266 101.27783203 C-64.33345703 102.03966797 -65.20744141 102.80150391 -66.10791016 103.58642578 C-76.39819022 112.42834202 -87.47517798 119.72087434 -99.27197266 126.40283203 C-100.01543945 126.83499023 -100.75890625 127.26714844 -101.52490234 127.71240234 C-106.17515602 130.32205522 -110.46968104 132.0206727 -115.70385742 133.08496094 C-119.86006559 134.57463852 -123.3284764 136.07794758 -126.45947266 139.27783203 C-127.9912904 143.328973 -128.25590388 147.42226138 -128.61474609 151.7175293 C-128.83312094 153.7333646 -129.05160771 155.74918926 -129.27301669 157.76469356 C-129.51339087 159.99865045 -129.73733732 162.23386809 -129.95970154 164.4696846 C-130.47292623 169.52766077 -131.08677698 174.5711148 -131.71691895 179.61569214 C-131.88536218 180.96573461 -131.88536218 180.96573461 -132.0572083 182.34305066 C-132.29086347 184.2144009 -132.52465513 186.0857341 -132.75857592 187.95705116 C-133.37455431 192.91592518 -133.97301598 197.87690513 -134.57183838 202.83787537 C-134.75760724 204.37548475 -134.75760724 204.37548475 -134.94712901 205.94415694 C-135.20195416 208.05376712 -135.45669235 210.16338779 -135.71134663 212.2730186 C-136.10428157 215.52732716 -136.49773219 218.78157297 -136.89134979 222.03579903 C-138.26787341 233.41645609 -139.6424275 244.79734904 -141.01513672 256.1784668 C-142.29073672 266.75398484 -143.57088759 277.3289456 -144.85304666 287.90367025 C-145.96011066 297.0360119 -147.06397766 306.16873632 -148.16536307 315.30176455 C-148.82063249 320.73497887 -149.47719709 326.16802886 -150.13703156 331.60069084 C-150.75469695 336.68702007 -151.36838511 341.77381351 -151.97901154 346.86099243 C-152.20331648 348.72398232 -152.42903984 350.58680207 -152.65629578 352.44943428 C-152.96647331 354.99354743 -153.2714973 357.53822831 -153.57525635 360.08311462 C-153.66591063 360.81655985 -153.75656491 361.55000508 -153.84996629 362.30567592 C-154.36446761 366.67251439 -154.54060068 370.89163357 -154.45947266 375.27783203 C-108.47368346 372.48841555 -60.85847623 357.10949756 -19.45947266 337.27783203 C-18.33025391 336.73932617 -18.33025391 336.73932617 -17.17822266 336.18994141 C-13.22923817 334.29167037 -9.32055331 332.32613276 -5.43457031 330.30224609 C-3.29760352 329.19387617 -1.1503311 328.10705846 0.99755859 327.02001953 C32.03219308 311.16800554 61.44005792 290.88057036 87.20068359 267.39892578 C89.32857549 265.46996869 91.48773593 263.58746851 93.66552734 261.71533203 C97.19266608 258.65135293 100.46221808 255.37830527 103.73583984 252.04736328 C105.54052734 250.27783203 105.54052734 250.27783203 108.10302734 248.27783203 C110.96562858 245.92903102 113.19793626 243.28553629 115.59521484 240.47314453 C117.61291655 238.1961398 119.73438354 236.0856774 121.91552734 233.96533203 C125.98909515 229.93993141 129.59936618 225.67417203 133.17333984 221.20361328 C135.21025572 218.68603904 137.30255079 216.23180541 139.42797852 213.7890625 C157.89156645 192.46380039 173.06026301 167.97869317 186.54052734 143.27783203 C186.99443848 142.45057617 187.44834961 141.62332031 187.91601562 140.77099609 C206.37113891 109.95216263 206.37113891 109.95216263 215.54052734 76.27783203 C203.95834109 74.93448051 192.37480776 73.6029931 180.79052734 72.27783203 C179.87201996 72.17275581 178.95351257 72.0676796 178.00717163 71.95941925 C134.70466198 67.00979786 91.37348245 62.32660444 48.04052734 57.65283203 C47.19374987 57.5614949 46.34697239 57.47015778 45.47453499 57.37605286 C23.49700867 55.00555036 1.51901282 52.63942511 -20.45947266 50.27783203 Z " fill="#67D35E" transform="translate(809.45947265625,670.72216796875)"/>
<path d="M0 0 C1.16233154 0.36198486 2.32466309 0.72396973 3.5222168 1.09692383 C7.08770312 2.22259983 10.63904216 3.38433226 14.1875 4.5625 C15.239375 4.90990234 16.29125 5.25730469 17.375 5.61523438 C50.89883202 16.8397317 84.15294581 31.87401175 114.1875 50.5625 C114.92162109 51.01270508 115.65574219 51.46291016 116.41210938 51.92675781 C137.74142635 65.01316381 157.98938893 79.51162026 177.1875 95.5625 C177.70892578 95.99755859 178.23035156 96.43261719 178.76757812 96.88085938 C195.92054986 111.23913206 213.15354878 126.57428878 227.6015625 143.69921875 C229.48941407 145.91721185 231.46452792 148.04492155 233.4375 150.1875 C238.47961537 155.78322601 243.10137607 161.66356822 247.69433594 167.62792969 C249.228173 169.61519667 250.77370164 171.59297576 252.3203125 173.5703125 C260.38987591 183.93952412 267.9396328 194.60433495 275.1875 205.5625 C275.6913623 206.32256348 276.19522461 207.08262695 276.71435547 207.86572266 C285.3580806 220.99304618 292.91249029 234.63757282 300.1875 248.5625 C300.70344727 249.54379883 301.21939453 250.52509766 301.75097656 251.53613281 C309.91926266 267.15182134 316.86781664 283.11586226 323.1875 299.5625 C323.59097656 300.61050781 323.99445313 301.65851563 324.41015625 302.73828125 C338.20558305 338.93420305 347.54382749 377.10551536 352.1875 415.5625 C352.40962158 417.22587402 352.40962158 417.22587402 352.63623047 418.92285156 C355.25041248 438.86267261 355.50434457 458.80755109 355.55586243 478.88418198 C355.56246126 480.98765027 355.57393936 483.091047 355.58630371 485.19448853 C355.60746011 489.19104845 355.59892855 493.18699645 355.5859375 497.18359375 C355.5918692 498.38347931 355.5978009 499.58336487 355.60391235 500.8196106 C355.52673782 510.22397371 354.41427935 519.124958 348.1875 526.5625 C340.24976973 533.51285406 332.41736767 534.00157162 322.1875 533.5625 C317.30310852 533.21558187 312.44178496 532.71835508 307.57373047 532.19238281 C306.15038316 532.04355841 304.7269734 531.89533029 303.3035078 531.74764156 C299.44582304 531.34571187 295.58905697 530.93552129 291.73240018 530.52386069 C287.59828115 530.08411463 283.46333277 529.6523022 279.32847595 529.21955872 C271.3343569 528.3817208 263.34098165 527.5369898 255.34784991 526.68979019 C245.20602415 525.61513891 235.06334442 524.54863456 224.9206543 523.48217773 C221.20743677 523.09165997 217.49422666 522.70107179 213.78102112 522.31044006 C212.86160577 522.21372102 211.94219042 522.11700197 210.994914 522.01735204 C204.47642176 521.33148613 197.9580844 520.64416022 191.43980408 519.95628357 C170.05705193 517.70025732 148.67228569 515.46538044 127.28385162 513.26386642 C123.15935212 512.83930259 119.03495505 512.41375028 114.9105835 511.98794556 C113.58258327 511.85086473 112.25458289 511.71378548 110.92658234 511.57670784 C108.34448372 511.31017302 105.76238632 511.04362638 103.18029022 510.77706718 C97.00057438 510.13948246 90.82066495 509.50389411 84.64031982 508.87243652 C78.93463933 508.28939877 73.22952717 507.70109156 67.5248127 507.10867882 C65.47321246 506.8966407 63.42140269 506.68661795 61.3693676 506.47883034 C58.6008907 506.1983112 55.83323794 505.91070375 53.06567383 505.62133789 C52.27480314 505.54298832 51.48393246 505.46463875 50.66909599 505.38391495 C43.93332136 504.66640612 37.22430059 503.73705123 31.5 499.875 C30.79488281 499.41738281 30.08976563 498.95976563 29.36328125 498.48828125 C23.39282035 493.20383381 21.09848778 487.12283955 18.875 479.625 C15.84845789 470.03160624 12.00553343 461.37054066 7.1875 452.5625 C6.55420907 451.36092912 5.92139027 450.15910927 5.2890625 448.95703125 C-1.59161775 436.14759237 -10.8437561 425.09071422 -20.8125 414.5625 C-22.07320312 413.22251953 -22.07320312 413.22251953 -23.359375 411.85546875 C-34.74526813 400.09114275 -47.8603245 391.01302943 -61.9296875 382.7265625 C-69.63964316 378.10894678 -74.91558214 373.57539734 -77.36161041 364.69120216 C-79.24710641 355.78955635 -78.73205091 346.19220926 -78.828125 337.13671875 C-78.83899438 336.11270608 -78.83899438 336.11270608 -78.85008335 335.06800628 C-79.12714651 301.87222588 -75.396864 269.01355259 -71.609375 236.08203125 C-71.5314167 235.40419797 -71.45345839 234.72636468 -71.37313771 234.027991 C-69.34886035 216.45329871 -67.24684717 198.88808701 -65.12258768 181.32523906 C-63.89857739 171.19946446 -62.69475372 161.07143433 -61.50439453 150.94165039 C-61.42003327 150.22379475 -61.33567201 149.50593912 -61.24875435 148.76633028 C-60.90924229 145.87669065 -60.56986293 142.98703547 -60.23065548 140.09736006 C-56.83945922 111.20868698 -53.42392974 82.32288956 -49.88722062 53.45162052 C-49.2131107 47.92849851 -48.56078503 42.40386196 -47.94400287 36.87404305 C-47.61556551 33.94394935 -47.27349002 31.01555694 -46.92843676 28.08737886 C-46.715656 26.23603017 -46.5226886 24.38243572 -46.33086777 22.5287981 C-45.39054712 14.68406329 -43.35691231 8.20760584 -37.75 2.44140625 C-36.7909375 1.78978516 -36.7909375 1.78978516 -35.8125 1.125 C-35.173125 0.67253906 -34.53375 0.22007813 -33.875 -0.24609375 C-23.21630603 -6.40310447 -11.10179335 -3.58845005 0 0 Z M2.1875 56.5625 C0.68303053 69.31197516 -0.81626416 82.06205604 -2.3125 94.8125 C-2.42945347 95.80911903 -2.54640694 96.80573807 -2.66690445 97.83255768 C-7.69465081 140.69134906 -12.60613248 183.56325836 -17.5 226.4375 C-17.5909129 227.23394236 -17.68182579 228.03038471 -17.77549362 228.85096169 C-20.12351376 249.42120651 -22.46923311 269.99171315 -24.8125 290.5625 C-24.30781189 290.92226929 -23.80312378 291.28203857 -23.28314209 291.65270996 C-20.9520307 293.31728511 -18.62445062 294.98673479 -16.296875 296.65625 C-15.5032959 297.22182617 -14.7097168 297.78740234 -13.89208984 298.37011719 C-7.03425771 303.29764856 -0.63157987 308.63815748 5.67675781 314.2434082 C7.24868497 315.61592314 8.85383471 316.94018136 10.46875 318.26171875 C12.82223032 320.25338529 14.37463255 322.11512894 16.1875 324.5625 C16.8475 324.5625 17.5075 324.5625 18.1875 324.5625 C18.42984375 325.12839844 18.6721875 325.69429688 18.921875 326.27734375 C20.43290853 329.00559874 22.26493476 330.88409248 24.4375 333.125 C42.21553484 352.1988678 54.83223122 374.76483114 64.43823242 398.85449219 C65.06238037 400.55853965 65.06238037 400.55853965 66.1875 401.5625 C68.13324726 401.85182229 70.0883336 402.07844358 72.04501343 402.28103638 C73.32106949 402.41533554 74.59712555 402.5496347 75.91184998 402.68800354 C77.341453 402.83391201 78.7710645 402.97973738 80.20068359 403.12548828 C81.698053 403.28138294 83.19538181 403.43766787 84.69267273 403.59431458 C88.79368444 404.02223357 92.89524778 404.4446437 96.99692106 404.86616755 C101.35282387 405.3147856 105.70819651 405.76849333 110.06362915 406.22164917 C118.39824846 407.08804176 126.73332589 407.94994343 135.06857741 408.81023014 C145.1815162 409.85418915 155.29389107 410.90356661 165.40625 411.953125 C176.1935814 413.07257763 186.98098302 414.19133545 197.76873779 415.30670166 C214.14808668 417.00048283 230.52688883 418.69894266 246.90323806 420.42151761 C249.31445562 420.67511637 251.7256985 420.92847295 254.13694954 421.18175316 C260.85325224 421.8873606 267.56948554 422.59356085 274.28520489 423.30470181 C276.31420316 423.51925479 278.34329509 423.7328943 280.37243271 423.94612503 C282.81672071 424.20303393 285.26084753 424.46148301 287.70477676 424.72178268 C288.77299541 424.83364536 289.84121407 424.94550804 290.94180298 425.0607605 C291.8649058 425.15834593 292.78800861 425.25593136 293.73908424 425.35647392 C295.88207943 425.53679987 298.03693128 425.5625 300.1875 425.5625 C301.70229301 385.49378166 283.78384039 336.96819842 267.31884766 301.04589844 C266.11744937 298.40873327 264.95337928 295.75700054 263.79296875 293.1015625 C250.33305963 262.5406868 232.62627845 233.94775233 212.1875 207.5625 C211.75727539 207.00224121 211.32705078 206.44198242 210.88378906 205.86474609 C205.63570846 199.03553688 200.30164931 192.37112623 194.453125 186.0390625 C192.56554244 183.9757395 190.72133067 181.887392 188.88671875 179.77734375 C185.2510417 175.61172714 181.52392567 171.54041264 177.75 167.5 C176.82477539 166.49743164 176.82477539 166.49743164 175.88085938 165.47460938 C172.09365727 161.41942627 168.15251526 157.69329012 163.93969727 154.08325195 C161.97588259 152.37883484 160.16441256 150.57329778 158.375 148.6875 C154.51320106 144.77300594 150.36526971 141.33244648 146.078125 137.89453125 C143.23714659 135.60255272 140.46404349 133.24436882 137.6875 130.875 C124.2904678 119.71369503 109.99794617 109.74693539 95.1875 100.5625 C94.55924316 100.17255859 93.93098633 99.78261719 93.28369141 99.38085938 C88.95545335 96.70997818 84.58430777 94.1186538 80.1875 91.5625 C79.54893066 91.18834961 78.91036133 90.81419922 78.25244141 90.42871094 C58.83211071 79.11413265 38.47847695 69.39482272 17.5625 61.1875 C15.76643311 60.48185913 15.76643311 60.48185913 13.93408203 59.76196289 C8.21725411 57.39334844 8.21725411 57.39334844 2.1875 56.5625 Z " fill="#67D35E" transform="translate(745.8125,120.4375)"/>
<path d="M0 0 C1.11529412 0.12038987 2.23058823 0.24077975 3.37967914 0.3648178 C7.10145166 0.76778043 10.82242785 1.17766629 14.54344177 1.58757019 C17.21823951 1.87866504 19.89307586 2.16938261 22.56796265 2.45965576 C29.07169995 3.16635924 35.57484886 3.87834112 42.07779408 4.59229282 C47.36902629 5.17313496 52.66045402 5.75216349 57.95202446 6.329916 C59.08393947 6.453508 59.08393947 6.453508 60.23872144 6.57959681 C61.77203365 6.74701224 63.30534614 6.91442503 64.83865892 7.08183523 C79.20754011 8.6509043 93.5757408 10.226135 107.94372993 11.80334868 C121.05875093 13.24284383 134.17454411 14.67515838 147.29073239 16.10397521 C160.78396251 17.57392155 174.27668357 19.04845826 187.76886314 20.52801722 C189.29851356 20.69574495 190.82816474 20.86346571 192.3578167 21.03117943 C193.11027663 21.1136806 193.86273656 21.19618177 194.6379983 21.28118298 C199.91274248 21.85921948 205.18780243 22.43431484 210.46299934 23.00820351 C216.90699446 23.70930684 223.3504872 24.41483495 229.79339529 25.12586097 C233.0740217 25.48778923 236.3548916 25.84714921 239.63624954 26.20239258 C280.73887206 30.65619615 280.73887206 30.65619615 287.62327576 37.88127136 C291.81154828 43.46397172 293.95126469 49.25071293 295.93577576 55.88127136 C298.96210287 65.4521675 302.86168386 74.06789008 307.62327576 82.88127136 C308.09120544 83.82744324 308.55913513 84.77361511 309.04124451 85.74845886 C323.05818413 113.45349496 348.15267961 135.14263182 374.81077576 150.13127136 C381.80917007 154.09749909 386.35983468 157.73285667 389.65472698 165.2274065 C391.07442743 170.58324787 390.98868823 175.80729388 391.0302124 181.32748413 C391.04419441 182.57292594 391.05817642 183.81836775 391.07258213 185.10155022 C391.10794271 189.21861784 391.12120367 193.33512843 391.12449646 197.45231628 C391.12572196 198.16210321 391.12694745 198.87189014 391.12821008 199.60318576 C391.16589009 229.91870311 388.6225781 259.66056895 385.06805587 289.77132058 C384.34506834 295.9265072 383.66379405 302.08640013 382.97771827 308.24578729 C381.62106719 320.41598512 380.23384368 332.58247018 378.82518005 344.74674988 C377.47084892 356.44247656 376.13176407 368.13978865 374.81248474 379.83952332 C374.73054507 380.56614 374.64860541 381.29275669 374.56418272 382.04139207 C374.15245205 385.69333697 373.7410197 389.34531541 373.32974088 392.99731123 C372.52531886 400.13957236 371.71895817 407.2816144 370.91168213 414.42355347 C370.83344217 415.11574558 370.75520221 415.80793768 370.67459134 416.52110531 C368.72975911 433.72117867 366.75629821 450.91796169 364.77345276 468.11369324 C364.65257597 469.16429471 364.53169917 470.21489619 364.40715945 471.29733407 C364.16943827 473.36006914 363.93055447 475.42267059 363.69043672 477.48512805 C363.04821093 483.03379239 362.44400244 488.58425918 361.88117409 494.14157677 C361.75531939 495.35385451 361.62946469 496.56613224 361.49979621 497.81514567 C361.25987289 500.13643471 361.02787119 502.45856211 360.80541152 504.78158981 C359.78101736 514.57870744 358.22397298 523.07599594 350.62327576 529.88127136 C343.02126326 535.29482572 335.71255019 535.49226209 326.62327576 534.88127136 C322.36634031 534.09066895 318.30743109 532.88475167 314.18577576 531.56877136 C313.03399841 531.21266785 311.88222107 530.85656433 310.69554138 530.4896698 C248.36398074 510.85807821 188.56516906 480.35384924 138.62327576 437.88127136 C138.08928162 437.43074402 137.55528748 436.98021667 137.00511169 436.51603699 C135.22859089 435.01675351 133.45635799 433.51256228 131.68577576 432.00627136 C131.16072449 431.56073914 130.63567322 431.11520691 130.0947113 430.65617371 C119.88239171 421.9010021 110.18380984 412.62844702 100.67674255 403.12004089 C98.93188768 401.37738819 97.17913833 399.64293974 95.42601013 397.90861511 C89.41527984 391.92709857 83.74815073 385.87944864 78.49021912 379.21574402 C76.69807181 376.97479821 74.82326896 374.86012571 72.87327576 372.75627136 C66.66676945 365.83693859 61.17632549 358.32603678 55.62327576 350.88127136 C55.0744574 350.14666687 54.52563904 349.41206238 53.96018982 348.65519714 C45.59969518 337.41254508 37.91487578 325.84257094 30.62327576 313.88127136 C30.19450134 313.18211609 29.76572693 312.48296082 29.32395935 311.76261902 C21.81178902 299.46118364 15.1176291 286.74434958 8.62327576 273.88127136 C8.15244568 272.9504071 7.6816156 272.01954285 7.19651794 271.06047058 C-24.18093339 208.53644615 -42.1944665 136.58420892 -42.61500549 66.52189636 C-42.62307724 65.21146362 -42.63114899 63.90103088 -42.63946533 62.55088806 C-42.65431151 59.80473476 -42.66423977 57.05860562 -42.67189026 54.31242371 C-42.68302247 50.82048397 -42.71757567 47.32916936 -42.75706196 43.83745193 C-42.789652 40.4614605 -42.79400934 37.08553272 -42.80250549 33.70939636 C-42.82876762 31.85124298 -42.82876762 31.85124298 -42.8555603 29.95555115 C-42.8337139 21.17893931 -41.20293166 14.59161705 -36.68922424 7.06877136 C-26.06457477 -2.98157273 -13.50543936 -1.50519586 0 0 Z M11.62327576 53.88127136 C23.08879883 132.96260062 50.28967913 208.30985365 99.62327576 271.88127136 C100.38640076 272.89834167 101.14952576 273.91541199 101.93577576 274.96330261 C108.44028567 283.61490673 115.42351316 291.80241687 122.62327576 299.88127136 C123.09958435 300.41687683 123.57589294 300.9524823 124.06663513 301.50431824 C130.60350943 308.81566001 137.45322837 315.80817514 144.37327576 322.75627136 C145.1655658 323.55323425 145.95785583 324.35019714 146.77415466 325.17131042 C151.56309582 329.94722454 156.48636129 334.4839862 161.62327576 338.88127136 C162.71807078 339.84232179 163.8118697 340.8045085 164.90452576 341.76799011 C173.48704518 349.26530263 182.40736481 356.18256818 191.62327576 362.88127136 C192.29197693 363.37095398 192.9606781 363.8606366 193.64964294 364.36515808 C215.59246489 380.38648186 239.10956535 394.18056421 263.62327576 405.88127136 C264.43216248 406.26782898 265.24104919 406.6543866 266.07444763 407.05265808 C288.1027741 418.98891092 288.1027741 418.98891092 311.62327576 424.88127136 C313.16167301 411.38375908 314.69307447 397.88549118 316.19798279 384.38420105 C316.51143494 381.57366035 316.82491345 378.7631226 317.13841248 375.95258713 C317.36301467 373.93873506 317.58751989 371.92487217 317.81193542 369.9109993 C319.54045032 354.41014855 321.30507968 338.91372482 323.08933842 323.41921437 C324.80617156 308.50714214 326.50149906 293.5927153 328.18186092 278.67648983 C329.2894026 268.85213295 330.41363165 259.029953 331.55767733 249.20977944 C332.35407147 242.3603654 333.13044019 235.50885998 333.89170831 228.65545398 C334.33993222 224.62610764 334.79732287 220.59831021 335.27773857 216.57266426 C335.72309375 212.83888814 336.14352683 209.10316743 336.54441369 205.36436331 C336.76707252 203.34960452 337.01644892 201.33785472 337.26656246 199.32631969 C337.45127779 197.53542903 337.45127779 197.53542903 337.63972473 195.70835876 C337.8171499 194.1552128 337.8171499 194.1552128 337.99815941 192.57069016 C337.87472393 189.65235779 337.87472393 189.65235779 335.25185585 187.61189651 C334.38442442 187.04079021 333.51699299 186.46968391 332.62327576 185.88127136 C331.9389447 185.38063171 331.25461365 184.87999207 330.54954529 184.36418152 C329.87520447 183.88771179 329.20086365 183.41124207 328.50608826 182.92033386 C318.42480785 175.70894578 309.08868837 168.17120167 300.25315857 159.47599792 C298.75912843 158.01419372 297.2355056 156.58279473 295.70921326 155.15470886 C282.57030604 142.62163022 272.60163246 127.56730618 263.62327576 111.88127136 C263.2483197 111.22916687 262.87336365 110.57706238 262.48704529 109.90519714 C258.42805263 102.77393843 254.96123074 95.51991234 251.88890076 87.91642761 C251.41347839 86.75053101 251.41347839 86.75053101 250.92845154 85.56108093 C250.15732927 83.66892149 249.38990993 81.77525366 248.62327576 79.88127136 C220.33169498 76.45667466 192.02318699 73.22315947 163.69313931 70.13379073 C158.433541 69.55987476 153.17417142 68.98386898 147.9147644 68.40820312 C139.13945121 67.44802667 130.36396419 66.48945256 121.58836365 65.53190613 C111.45124736 64.42577772 101.31442444 63.31699025 91.17774445 62.20687121 C81.34913791 61.13055163 71.52033307 60.05605343 61.69143486 58.98240089 C57.53233815 58.52805298 53.37331211 58.07306582 49.21434212 57.61755943 C44.35083997 57.08497266 39.4871668 56.55397636 34.62335396 56.02423477 C32.83941579 55.82967647 31.05553802 55.63456349 29.2717247 55.43886375 C26.84480305 55.17270129 24.41767351 54.90852335 21.99047852 54.64486694 C21.280804 54.56656763 20.57112948 54.48826831 19.83994967 54.40759629 C17.08111865 54.10969199 14.40101063 53.88127136 11.62327576 53.88127136 Z " fill="#67D35E" transform="translate(141.37672424316406,600.1187286376953)"/>
</svg>
